<?xml version="1.0" encoding="UTF-8" standalone="no"?>
<!DOCTYPE svg PUBLIC "-//W3C//DTD SVG 1.1//EN"
 "http://www.w3.org/Graphics/SVG/1.1/DTD/svg11.dtd">
<!-- Generated by graphviz version 2.42.4 (0)
 -->
<!-- Pages: 1 -->
<svg width="2357pt" height="401pt"
 viewBox="0.00 0.00 2356.50 401.00" xmlns="http://www.w3.org/2000/svg" xmlns:xlink="http://www.w3.org/1999/xlink">
<g id="graph0" class="graph" transform="scale(1 1) rotate(0) translate(4 397)">
<polygon fill="white" stroke="transparent" points="-4,4 -4,-397 2352.5,-397 2352.5,4 -4,4"/>
<!-- clue/graph&#45;composer -->
<g id="node1" class="node">
<title>clue/graph&#45;composer</title>
<ellipse fill="lightgrey" stroke="black" stroke-width="2" cx="665" cy="-375" rx="107.78" ry="18"/>
<text text-anchor="middle" x="665" y="-371.3" font-family="Times,serif" font-size="14.00">clue/graph&#45;composer</text>
</g>
<!-- php -->
<g id="node2" class="node">
<title>php</title>
<path fill="#eeeeee" stroke="black" d="M1025,-36C1025,-36 995,-36 995,-36 989,-36 983,-30 983,-24 983,-24 983,-12 983,-12 983,-6 989,0 995,0 995,0 1025,0 1025,0 1031,0 1037,-6 1037,-12 1037,-12 1037,-24 1037,-24 1037,-30 1031,-36 1025,-36"/>
<text text-anchor="middle" x="1010" y="-14.3" font-family="Times,serif" font-size="14.00" fill="#314b5f">php</text>
</g>
<!-- clue/graph&#45;composer&#45;&gt;php -->
<g id="edge1" class="edge">
<title>clue/graph&#45;composer&#45;&gt;php</title>
<path fill="none" stroke="#1a2833" d="M560.44,-370.51C424.17,-365.42 193.41,-354.81 110,-339 57.94,-329.13 0,-345.99 0,-293 0,-293 0,-293 0,-100 0,-29.42 82.4,-65.75 152,-54 313.34,-26.75 828.81,-20.5 972.5,-19.27"/>
<polygon fill="#1a2833" stroke="#1a2833" points="972.61,-22.77 982.58,-19.19 972.55,-15.77 972.61,-22.77"/>
<text text-anchor="middle" x="12" y="-181.5" font-family="Times,serif" font-size="10.00" fill="#767676">^8.2</text>
</g>
<!-- graphp/graph -->
<g id="node3" class="node">
<title>graphp/graph</title>
<path fill="#eeeeee" stroke="black" d="M204,-202C204,-202 54,-202 54,-202 48,-202 42,-196 42,-190 42,-190 42,-178 42,-178 42,-172 48,-166 54,-166 54,-166 204,-166 204,-166 210,-166 216,-172 216,-178 216,-178 216,-190 216,-190 216,-196 210,-202 204,-202"/>
<text text-anchor="middle" x="129" y="-180.3" font-family="Times,serif" font-size="14.00" fill="#314b5f">graphp/graph: 1.x&#45;dev</text>
</g>
<!-- clue/graph&#45;composer&#45;&gt;graphp/graph -->
<g id="edge3" class="edge">
<title>clue/graph&#45;composer&#45;&gt;graphp/graph</title>
<path fill="none" stroke="#1a2833" d="M621.14,-358.53C524.79,-324.56 294.67,-243.42 186.74,-205.36"/>
<polygon fill="#1a2833" stroke="#1a2833" points="187.9,-202.06 177.31,-202.03 185.57,-208.66 187.9,-202.06"/>
<text text-anchor="middle" x="542.5" y="-289.5" font-family="Times,serif" font-size="10.00" fill="#767676">1.x&#45;dev#0adb04d as 1.0.0</text>
</g>
<!-- graphp/graphviz -->
<g id="node4" class="node">
<title>graphp/graphviz</title>
<path fill="#eeeeee" stroke="black" d="M211,-310C211,-310 41,-310 41,-310 35,-310 29,-304 29,-298 29,-298 29,-286 29,-286 29,-280 35,-274 41,-274 41,-274 211,-274 211,-274 217,-274 223,-280 223,-286 223,-286 223,-298 223,-298 223,-304 217,-310 211,-310"/>
<text text-anchor="middle" x="126" y="-288.3" font-family="Times,serif" font-size="14.00" fill="#314b5f">graphp/graphviz: 1.x&#45;dev</text>
</g>
<!-- clue/graph&#45;composer&#45;&gt;graphp/graphviz -->
<g id="edge6" class="edge">
<title>clue/graph&#45;composer&#45;&gt;graphp/graphviz</title>
<path fill="none" stroke="#1a2833" d="M557.06,-374.84C406.18,-374.85 147.32,-370.25 118,-339 113.23,-333.92 112.57,-327.06 113.79,-320.19"/>
<polygon fill="#1a2833" stroke="#1a2833" points="117.23,-320.9 116.68,-310.32 110.51,-318.94 117.23,-320.9"/>
<text text-anchor="middle" x="181.5" y="-331" font-family="Times,serif" font-size="10.00" fill="#767676">1.x&#45;dev#686f747 as 1.0.0</text>
</g>
<!-- jms/composer&#45;deps&#45;analyzer -->
<g id="node5" class="node">
<title>jms/composer&#45;deps&#45;analyzer</title>
<path fill="#eeeeee" stroke="black" d="M2132,-256C2132,-256 1892,-256 1892,-256 1886,-256 1880,-250 1880,-244 1880,-244 1880,-232 1880,-232 1880,-226 1886,-220 1892,-220 1892,-220 2132,-220 2132,-220 2138,-220 2144,-226 2144,-232 2144,-232 2144,-244 2144,-244 2144,-250 2138,-256 2132,-256"/>
<text text-anchor="middle" x="2012" y="-234.3" font-family="Times,serif" font-size="14.00" fill="#314b5f">jms/composer&#45;deps&#45;analyzer: 1.0.1</text>
</g>
<!-- clue/graph&#45;composer&#45;&gt;jms/composer&#45;deps&#45;analyzer -->
<g id="edge8" class="edge">
<title>clue/graph&#45;composer&#45;&gt;jms/composer&#45;deps&#45;analyzer</title>
<path fill="none" stroke="#1a2833" d="M758.15,-365.79C959.69,-347.85 1451.51,-303.04 1869.75,-256.69"/>
<polygon fill="#1a2833" stroke="#1a2833" points="1870.37,-260.14 1879.92,-255.56 1869.6,-253.19 1870.37,-260.14"/>
<text text-anchor="middle" x="1169.5" y="-331" font-family="Times,serif" font-size="10.00" fill="#767676">^1.0.1</text>
</g>
<!-- symfony/console -->
<g id="node6" class="node">
<title>symfony/console</title>
<path fill="#eeeeee" stroke="black" d="M1070,-310C1070,-310 906,-310 906,-310 900,-310 894,-304 894,-298 894,-298 894,-286 894,-286 894,-280 900,-274 906,-274 906,-274 1070,-274 1070,-274 1076,-274 1082,-280 1082,-286 1082,-286 1082,-298 1082,-298 1082,-304 1076,-310 1070,-310"/>
<text text-anchor="middle" x="988" y="-288.3" font-family="Times,serif" font-size="14.00" fill="#314b5f">symfony/console: v7.4.8</text>
</g>
<!-- clue/graph&#45;composer&#45;&gt;symfony/console -->
<g id="edge30" class="edge">
<title>clue/graph&#45;composer&#45;&gt;symfony/console</title>
<path fill="none" stroke="#1a2833" d="M722,-359.71C774.3,-346.59 852.23,-327.05 910.24,-312.5"/>
<polygon fill="#1a2833" stroke="#1a2833" points="911.25,-315.86 920.1,-310.03 909.54,-309.07 911.25,-315.86"/>
<text text-anchor="middle" x="875.5" y="-331" font-family="Times,serif" font-size="10.00" fill="#767676">^7.4 || ^8.0</text>
</g>
<!-- bamarni/composer&#45;bin&#45;plugin -->
<g id="node16" class="node">
<title>bamarni/composer&#45;bin&#45;plugin</title>
<path fill="#eeeeee" stroke="black" d="M2282.5,-310C2282.5,-310 2035.5,-310 2035.5,-310 2029.5,-310 2023.5,-304 2023.5,-298 2023.5,-298 2023.5,-286 2023.5,-286 2023.5,-280 2029.5,-274 2035.5,-274 2035.5,-274 2282.5,-274 2282.5,-274 2288.5,-274 2294.5,-280 2294.5,-286 2294.5,-286 2294.5,-298 2294.5,-298 2294.5,-304 2288.5,-310 2282.5,-310"/>
<text text-anchor="middle" x="2159" y="-288.3" font-family="Times,serif" font-size="14.00" fill="#314b5f">bamarni/composer&#45;bin&#45;plugin: 1.9.1</text>
</g>
<!-- clue/graph&#45;composer&#45;&gt;bamarni/composer&#45;bin&#45;plugin -->
<g id="edge33" class="edge">
<title>clue/graph&#45;composer&#45;&gt;bamarni/composer&#45;bin&#45;plugin</title>
<path fill="none" stroke="#1a2833" stroke-dasharray="5,2" d="M767.03,-369.13C903.01,-362.58 1151.13,-350.43 1363,-339 1590.06,-326.75 1853.47,-311.28 2013.09,-301.77"/>
<polygon fill="#1a2833" stroke="#1a2833" points="2013.68,-305.24 2023.45,-301.15 2013.26,-298.25 2013.68,-305.24"/>
<text text-anchor="middle" x="1572" y="-331" font-family="Times,serif" font-size="10.00" fill="#767676">^1.8</text>
</g>
<!-- graphp/graph&#45;&gt;php -->
<g id="edge2" class="edge">
<title>graphp/graph&#45;&gt;php</title>
<path fill="none" stroke="#1a2833" d="M127.96,-165.64C127.46,-144.79 129.06,-109.34 143,-83 151.98,-66.04 157.24,-61.28 175,-54 249.32,-23.53 819.81,-19.59 972.51,-19.08"/>
<polygon fill="#1a2833" stroke="#1a2833" points="972.78,-22.57 982.77,-19.04 972.76,-15.57 972.78,-22.57"/>
<text text-anchor="middle" x="159" y="-98.5" font-family="Times,serif" font-size="10.00" fill="#767676">&gt;=5.3</text>
</g>
<!-- graphp/graphviz&#45;&gt;php -->
<g id="edge5" class="edge">
<title>graphp/graphviz&#45;&gt;php</title>
<path fill="none" stroke="#1a2833" d="M157.33,-273.85C181.38,-258.62 212.52,-233.85 225,-202 230.84,-187.1 229.92,-181.22 225,-166 221.96,-156.61 215.04,-157.39 212,-148 210.5,-143.35 211.26,-141.83 212,-137 215.82,-112.13 213.03,-102.44 229,-83 246.04,-62.25 256.15,-61.27 282,-54 413.8,-16.9 843.03,-17.52 972.62,-18.59"/>
<polygon fill="#1a2833" stroke="#1a2833" points="972.79,-22.09 982.82,-18.68 972.86,-15.09 972.79,-22.09"/>
<text text-anchor="middle" x="232.5" y="-140" font-family="Times,serif" font-size="10.00" fill="#767676">&gt;=5.3.0</text>
</g>
<!-- graphp/graphviz&#45;&gt;graphp/graph -->
<g id="edge4" class="edge">
<title>graphp/graphviz&#45;&gt;graphp/graph</title>
<path fill="none" stroke="#1a2833" d="M126.48,-273.97C126.95,-257.38 127.67,-231.88 128.22,-212.43"/>
<polygon fill="#1a2833" stroke="#1a2833" points="131.72,-212.44 128.51,-202.34 124.73,-212.24 131.72,-212.44"/>
<text text-anchor="middle" x="149.5" y="-235.5" font-family="Times,serif" font-size="10.00" fill="#767676">^1@dev</text>
</g>
<!-- jms/composer&#45;deps&#45;analyzer&#45;&gt;php -->
<g id="edge7" class="edge">
<title>jms/composer&#45;deps&#45;analyzer&#45;&gt;php</title>
<path fill="none" stroke="#1a2833" d="M2020.98,-219.8C2038.48,-183.62 2071.77,-99.3 2028,-54 1993.29,-18.07 1226.49,-18.3 1047.24,-18.85"/>
<polygon fill="#1a2833" stroke="#1a2833" points="1047.22,-15.35 1037.24,-18.88 1047.25,-22.35 1047.22,-15.35"/>
<text text-anchor="middle" x="2070" y="-140" font-family="Times,serif" font-size="10.00" fill="#767676">&gt;= 5.3.2</text>
</g>
<!-- symfony/console&#45;&gt;php -->
<g id="edge9" class="edge">
<title>symfony/console&#45;&gt;php</title>
<path fill="none" stroke="#1a2833" d="M1082.14,-286.81C1355.39,-272.97 2121.43,-221.43 1994,-83 1961.31,-47.49 1222.6,-24.88 1047.14,-20"/>
<polygon fill="#1a2833" stroke="#1a2833" points="1047.2,-16.5 1037.1,-19.72 1047,-23.49 1047.2,-16.5"/>
<text text-anchor="middle" x="2012" y="-140" font-family="Times,serif" font-size="10.00" fill="#767676">&gt;=8.2</text>
</g>
<!-- symfony/deprecation&#45;contracts -->
<g id="node7" class="node">
<title>symfony/deprecation&#45;contracts</title>
<path fill="#eeeeee" stroke="black" d="M739,-119C739,-119 473,-119 473,-119 467,-119 461,-113 461,-107 461,-107 461,-95 461,-95 461,-89 467,-83 473,-83 473,-83 739,-83 739,-83 745,-83 751,-89 751,-95 751,-95 751,-107 751,-107 751,-113 745,-119 739,-119"/>
<text text-anchor="middle" x="606" y="-97.3" font-family="Times,serif" font-size="14.00" fill="#314b5f">symfony/deprecation&#45;contracts: v3.6.0</text>
</g>
<!-- symfony/console&#45;&gt;symfony/deprecation&#45;contracts -->
<g id="edge11" class="edge">
<title>symfony/console&#45;&gt;symfony/deprecation&#45;contracts</title>
<path fill="none" stroke="#1a2833" d="M955.49,-273.99C927.6,-259.46 886.28,-238.1 850,-220 780.98,-185.56 700.3,-146.84 651.19,-123.44"/>
<polygon fill="#1a2833" stroke="#1a2833" points="652.64,-120.26 642.1,-119.12 649.63,-126.58 652.64,-120.26"/>
<text text-anchor="middle" x="834.5" y="-181.5" font-family="Times,serif" font-size="10.00" fill="#767676">^2.5|^3</text>
</g>
<!-- symfony/polyfill&#45;mbstring -->
<g id="node8" class="node">
<title>symfony/polyfill&#45;mbstring</title>
<path fill="#eeeeee" stroke="black" d="M1973.5,-119C1973.5,-119 1736.5,-119 1736.5,-119 1730.5,-119 1724.5,-113 1724.5,-107 1724.5,-107 1724.5,-95 1724.5,-95 1724.5,-89 1730.5,-83 1736.5,-83 1736.5,-83 1973.5,-83 1973.5,-83 1979.5,-83 1985.5,-89 1985.5,-95 1985.5,-95 1985.5,-107 1985.5,-107 1985.5,-113 1979.5,-119 1973.5,-119"/>
<text text-anchor="middle" x="1855" y="-97.3" font-family="Times,serif" font-size="14.00" fill="#314b5f">symfony/polyfill&#45;mbstring: v1.36.0</text>
</g>
<!-- symfony/console&#45;&gt;symfony/polyfill&#45;mbstring -->
<g id="edge14" class="edge">
<title>symfony/console&#45;&gt;symfony/polyfill&#45;mbstring</title>
<path fill="none" stroke="#1a2833" d="M1082.01,-277.07C1119.45,-271.15 1162.87,-263.81 1202,-256 1412.54,-214.01 1658.42,-152.65 1779.6,-121.58"/>
<polygon fill="#1a2833" stroke="#1a2833" points="1780.71,-124.91 1789.52,-119.04 1778.97,-118.13 1780.71,-124.91"/>
<text text-anchor="middle" x="1607" y="-181.5" font-family="Times,serif" font-size="10.00" fill="#767676">~1.0</text>
</g>
<!-- symfony/service&#45;contracts -->
<g id="node10" class="node">
<title>symfony/service&#45;contracts</title>
<path fill="#eeeeee" stroke="black" d="M584.5,-202C584.5,-202 351.5,-202 351.5,-202 345.5,-202 339.5,-196 339.5,-190 339.5,-190 339.5,-178 339.5,-178 339.5,-172 345.5,-166 351.5,-166 351.5,-166 584.5,-166 584.5,-166 590.5,-166 596.5,-172 596.5,-178 596.5,-178 596.5,-190 596.5,-190 596.5,-196 590.5,-202 584.5,-202"/>
<text text-anchor="middle" x="468" y="-180.3" font-family="Times,serif" font-size="14.00" fill="#314b5f">symfony/service&#45;contracts: v3.6.1</text>
</g>
<!-- symfony/console&#45;&gt;symfony/service&#45;contracts -->
<g id="edge19" class="edge">
<title>symfony/console&#45;&gt;symfony/service&#45;contracts</title>
<path fill="none" stroke="#1a2833" d="M904.45,-273.97C810.78,-254.87 659.24,-223.98 561.63,-204.09"/>
<polygon fill="#1a2833" stroke="#1a2833" points="562.27,-200.64 551.77,-202.08 560.87,-207.5 562.27,-200.64"/>
<text text-anchor="middle" x="825.5" y="-235.5" font-family="Times,serif" font-size="10.00" fill="#767676">^2.5|^3</text>
</g>
<!-- symfony/string -->
<g id="node12" class="node">
<title>symfony/string</title>
<path fill="#eeeeee" stroke="black" d="M1310.5,-202C1310.5,-202 1157.5,-202 1157.5,-202 1151.5,-202 1145.5,-196 1145.5,-190 1145.5,-190 1145.5,-178 1145.5,-178 1145.5,-172 1151.5,-166 1157.5,-166 1157.5,-166 1310.5,-166 1310.5,-166 1316.5,-166 1322.5,-172 1322.5,-178 1322.5,-178 1322.5,-190 1322.5,-190 1322.5,-196 1316.5,-202 1310.5,-202"/>
<text text-anchor="middle" x="1234" y="-180.3" font-family="Times,serif" font-size="14.00" fill="#314b5f">symfony/string: v7.4.8</text>
</g>
<!-- symfony/console&#45;&gt;symfony/string -->
<g id="edge29" class="edge">
<title>symfony/console&#45;&gt;symfony/string</title>
<path fill="none" stroke="#1a2833" d="M1027.52,-273.97C1070.34,-255.52 1138.72,-226.05 1184.94,-206.14"/>
<polygon fill="#1a2833" stroke="#1a2833" points="1186.37,-209.34 1194.17,-202.16 1183.6,-202.91 1186.37,-209.34"/>
<text text-anchor="middle" x="1173" y="-235.5" font-family="Times,serif" font-size="10.00" fill="#767676">^7.2|^8.0</text>
</g>
<!-- symfony/deprecation&#45;contracts&#45;&gt;php -->
<g id="edge10" class="edge">
<title>symfony/deprecation&#45;contracts&#45;&gt;php</title>
<path fill="none" stroke="#1a2833" d="M691.18,-82.92C778.24,-65.47 909.41,-39.17 972.92,-26.43"/>
<polygon fill="#1a2833" stroke="#1a2833" points="973.77,-29.83 982.88,-24.44 972.39,-22.97 973.77,-29.83"/>
<text text-anchor="middle" x="849" y="-57" font-family="Times,serif" font-size="10.00" fill="#767676">&gt;=8.1</text>
</g>
<!-- symfony/polyfill&#45;mbstring&#45;&gt;php -->
<g id="edge13" class="edge">
<title>symfony/polyfill&#45;mbstring&#45;&gt;php</title>
<path fill="none" stroke="#1a2833" d="M1742.71,-82.99C1676.32,-73.4 1590.51,-61.81 1514,-54 1339.74,-36.21 1130.64,-24.88 1047.11,-20.75"/>
<polygon fill="#1a2833" stroke="#1a2833" points="1047.26,-17.26 1037.1,-20.26 1046.91,-24.25 1047.26,-17.26"/>
<text text-anchor="middle" x="1624" y="-57" font-family="Times,serif" font-size="10.00" fill="#767676">&gt;=7.2</text>
</g>
<!-- ext&#45;iconv -->
<g id="node9" class="node">
<title>ext&#45;iconv</title>
<path fill="#eeeeee" stroke="black" d="M2220.5,-36C2220.5,-36 2163.5,-36 2163.5,-36 2157.5,-36 2151.5,-30 2151.5,-24 2151.5,-24 2151.5,-12 2151.5,-12 2151.5,-6 2157.5,0 2163.5,0 2163.5,0 2220.5,0 2220.5,0 2226.5,0 2232.5,-6 2232.5,-12 2232.5,-12 2232.5,-24 2232.5,-24 2232.5,-30 2226.5,-36 2220.5,-36"/>
<text text-anchor="middle" x="2192" y="-14.3" font-family="Times,serif" font-size="14.00" fill="#314b5f">ext&#45;iconv</text>
</g>
<!-- symfony/polyfill&#45;mbstring&#45;&gt;ext&#45;iconv -->
<g id="edge12" class="edge">
<title>symfony/polyfill&#45;mbstring&#45;&gt;ext&#45;iconv</title>
<path fill="none" stroke="#1a2833" d="M1926.06,-82.92C1990.55,-67.42 2084.05,-44.95 2141.28,-31.19"/>
<polygon fill="#1a2833" stroke="#1a2833" points="2142.28,-34.55 2151.18,-28.81 2140.64,-27.74 2142.28,-34.55"/>
<text text-anchor="middle" x="2047" y="-57" font-family="Times,serif" font-size="10.00" fill="#767676">*</text>
</g>
<!-- symfony/service&#45;contracts&#45;&gt;php -->
<g id="edge15" class="edge">
<title>symfony/service&#45;contracts&#45;&gt;php</title>
<path fill="none" stroke="#1a2833" d="M341.43,-165.96C270.97,-151.4 204.67,-125.81 244,-83 293.71,-28.89 824.83,-20.52 972.24,-19.23"/>
<polygon fill="#1a2833" stroke="#1a2833" points="972.6,-22.73 982.58,-19.15 972.55,-15.73 972.6,-22.73"/>
<text text-anchor="middle" x="260" y="-98.5" font-family="Times,serif" font-size="10.00" fill="#767676">&gt;=8.1</text>
</g>
<!-- symfony/service&#45;contracts&#45;&gt;symfony/deprecation&#45;contracts -->
<g id="edge18" class="edge">
<title>symfony/service&#45;contracts&#45;&gt;symfony/deprecation&#45;contracts</title>
<path fill="none" stroke="#1a2833" d="M497.27,-165.82C517.85,-153.74 545.59,-137.46 567.9,-124.36"/>
<polygon fill="#1a2833" stroke="#1a2833" points="569.92,-127.23 576.78,-119.15 566.38,-121.2 569.92,-127.23"/>
<text text-anchor="middle" x="566.5" y="-140" font-family="Times,serif" font-size="10.00" fill="#767676">^2.5|^3</text>
</g>
<!-- psr/container -->
<g id="node11" class="node">
<title>psr/container</title>
<path fill="#eeeeee" stroke="black" d="M430.5,-119C430.5,-119 297.5,-119 297.5,-119 291.5,-119 285.5,-113 285.5,-107 285.5,-107 285.5,-95 285.5,-95 285.5,-89 291.5,-83 297.5,-83 297.5,-83 430.5,-83 430.5,-83 436.5,-83 442.5,-89 442.5,-95 442.5,-95 442.5,-107 442.5,-107 442.5,-113 436.5,-119 430.5,-119"/>
<text text-anchor="middle" x="364" y="-97.3" font-family="Times,serif" font-size="14.00" fill="#314b5f">psr/container: 2.0.2</text>
</g>
<!-- symfony/service&#45;contracts&#45;&gt;psr/container -->
<g id="edge17" class="edge">
<title>symfony/service&#45;contracts&#45;&gt;psr/container</title>
<path fill="none" stroke="#1a2833" d="M445.94,-165.82C430.91,-154.12 410.82,-138.47 394.3,-125.6"/>
<polygon fill="#1a2833" stroke="#1a2833" points="396.06,-122.54 386.02,-119.15 391.76,-128.06 396.06,-122.54"/>
<text text-anchor="middle" x="448" y="-140" font-family="Times,serif" font-size="10.00" fill="#767676">^1.1|^2.0</text>
</g>
<!-- psr/container&#45;&gt;php -->
<g id="edge16" class="edge">
<title>psr/container&#45;&gt;php</title>
<path fill="none" stroke="#1a2833" d="M442.63,-84.5C445.79,-83.98 448.92,-83.47 452,-83 647.18,-53 882.76,-30.41 972.67,-22.28"/>
<polygon fill="#1a2833" stroke="#1a2833" points="973.25,-25.75 982.9,-21.37 972.63,-18.77 973.25,-25.75"/>
<text text-anchor="middle" x="687.5" y="-57" font-family="Times,serif" font-size="10.00" fill="#767676">&gt;=7.4.0</text>
</g>
<!-- symfony/string&#45;&gt;php -->
<g id="edge20" class="edge">
<title>symfony/string&#45;&gt;php</title>
<path fill="none" stroke="#1a2833" d="M1306.87,-165.95C1363.12,-149.4 1426.34,-121.18 1394,-83 1349.71,-30.72 1134.69,-21.11 1047.17,-19.37"/>
<polygon fill="#1a2833" stroke="#1a2833" points="1047.21,-15.87 1037.15,-19.19 1047.09,-22.87 1047.21,-15.87"/>
<text text-anchor="middle" x="1419" y="-98.5" font-family="Times,serif" font-size="10.00" fill="#767676">&gt;=8.2</text>
</g>
<!-- symfony/string&#45;&gt;symfony/deprecation&#45;contracts -->
<g id="edge21" class="edge">
<title>symfony/string&#45;&gt;symfony/deprecation&#45;contracts</title>
<path fill="none" stroke="#1a2833" d="M1145.46,-169.84C1080.16,-160.29 989.12,-147.3 909,-137 861.07,-130.84 808.81,-124.63 761.39,-119.18"/>
<polygon fill="#1a2833" stroke="#1a2833" points="761.68,-115.69 751.35,-118.02 760.89,-122.64 761.68,-115.69"/>
<text text-anchor="middle" x="1015" y="-140" font-family="Times,serif" font-size="10.00" fill="#767676">^2.5|^3.0</text>
</g>
<!-- symfony/string&#45;&gt;symfony/polyfill&#45;mbstring -->
<g id="edge28" class="edge">
<title>symfony/string&#45;&gt;symfony/polyfill&#45;mbstring</title>
<path fill="none" stroke="#1a2833" d="M1322.64,-171.44C1424.91,-158.1 1594.39,-135.99 1714.63,-120.31"/>
<polygon fill="#1a2833" stroke="#1a2833" points="1715.19,-123.77 1724.66,-119 1714.29,-116.82 1715.19,-123.77"/>
<text text-anchor="middle" x="1594" y="-140" font-family="Times,serif" font-size="10.00" fill="#767676">~1.0</text>
</g>
<!-- symfony/polyfill&#45;ctype -->
<g id="node13" class="node">
<title>symfony/polyfill&#45;ctype</title>
<path fill="#eeeeee" stroke="black" d="M1694.5,-119C1694.5,-119 1483.5,-119 1483.5,-119 1477.5,-119 1471.5,-113 1471.5,-107 1471.5,-107 1471.5,-95 1471.5,-95 1471.5,-89 1477.5,-83 1483.5,-83 1483.5,-83 1694.5,-83 1694.5,-83 1700.5,-83 1706.5,-89 1706.5,-95 1706.5,-95 1706.5,-107 1706.5,-107 1706.5,-113 1700.5,-119 1694.5,-119"/>
<text text-anchor="middle" x="1589" y="-97.3" font-family="Times,serif" font-size="14.00" fill="#314b5f">symfony/polyfill&#45;ctype: v1.36.0</text>
</g>
<!-- symfony/string&#45;&gt;symfony/polyfill&#45;ctype -->
<g id="edge23" class="edge">
<title>symfony/string&#45;&gt;symfony/polyfill&#45;ctype</title>
<path fill="none" stroke="#1a2833" d="M1322.51,-169.9C1357.71,-164.09 1398.45,-156.61 1435,-148 1465.86,-140.73 1499.65,-130.86 1527.7,-122.12"/>
<polygon fill="#1a2833" stroke="#1a2833" points="1528.88,-125.42 1537.37,-119.08 1526.78,-118.74 1528.88,-125.42"/>
<text text-anchor="middle" x="1486" y="-140" font-family="Times,serif" font-size="10.00" fill="#767676">~1.8</text>
</g>
<!-- symfony/polyfill&#45;intl&#45;grapheme -->
<g id="node14" class="node">
<title>symfony/polyfill&#45;intl&#45;grapheme</title>
<path fill="#eeeeee" stroke="black" d="M1053,-119C1053,-119 781,-119 781,-119 775,-119 769,-113 769,-107 769,-107 769,-95 769,-95 769,-89 775,-83 781,-83 781,-83 1053,-83 1053,-83 1059,-83 1065,-89 1065,-95 1065,-95 1065,-107 1065,-107 1065,-113 1059,-119 1053,-119"/>
<text text-anchor="middle" x="917" y="-97.3" font-family="Times,serif" font-size="14.00" fill="#314b5f">symfony/polyfill&#45;intl&#45;grapheme: v1.36.0</text>
</g>
<!-- symfony/string&#45;&gt;symfony/polyfill&#45;intl&#45;grapheme -->
<g id="edge25" class="edge">
<title>symfony/string&#45;&gt;symfony/polyfill&#45;intl&#45;grapheme</title>
<path fill="none" stroke="#1a2833" d="M1182.97,-165.94C1154.35,-156.71 1117.9,-145.49 1085,-137 1063.01,-131.33 1039.22,-125.93 1016.66,-121.15"/>
<polygon fill="#1a2833" stroke="#1a2833" points="1017.23,-117.69 1006.73,-119.07 1015.8,-124.54 1017.23,-117.69"/>
<text text-anchor="middle" x="1138" y="-140" font-family="Times,serif" font-size="10.00" fill="#767676">~1.33</text>
</g>
<!-- symfony/polyfill&#45;intl&#45;normalizer -->
<g id="node15" class="node">
<title>symfony/polyfill&#45;intl&#45;normalizer</title>
<path fill="#eeeeee" stroke="black" d="M1373,-119C1373,-119 1095,-119 1095,-119 1089,-119 1083,-113 1083,-107 1083,-107 1083,-95 1083,-95 1083,-89 1089,-83 1095,-83 1095,-83 1373,-83 1373,-83 1379,-83 1385,-89 1385,-95 1385,-95 1385,-107 1385,-107 1385,-113 1379,-119 1373,-119"/>
<text text-anchor="middle" x="1234" y="-97.3" font-family="Times,serif" font-size="14.00" fill="#314b5f">symfony/polyfill&#45;intl&#45;normalizer: v1.36.0</text>
</g>
<!-- symfony/string&#45;&gt;symfony/polyfill&#45;intl&#45;normalizer -->
<g id="edge27" class="edge">
<title>symfony/string&#45;&gt;symfony/polyfill&#45;intl&#45;normalizer</title>
<path fill="none" stroke="#1a2833" d="M1234,-165.82C1234,-155.19 1234,-141.31 1234,-129.2"/>
<polygon fill="#1a2833" stroke="#1a2833" points="1237.5,-129.15 1234,-119.15 1230.5,-129.15 1237.5,-129.15"/>
<text text-anchor="middle" x="1246" y="-140" font-family="Times,serif" font-size="10.00" fill="#767676">~1.0</text>
</g>
<!-- symfony/polyfill&#45;ctype&#45;&gt;php -->
<g id="edge22" class="edge">
<title>symfony/polyfill&#45;ctype&#45;&gt;php</title>
<path fill="none" stroke="#1a2833" d="M1541.43,-82.99C1511.31,-72.93 1471.33,-60.85 1435,-54 1293.54,-27.35 1121.79,-20.99 1047.37,-19.47"/>
<polygon fill="#1a2833" stroke="#1a2833" points="1047.17,-15.97 1037.11,-19.28 1047.04,-22.97 1047.17,-15.97"/>
<text text-anchor="middle" x="1494" y="-57" font-family="Times,serif" font-size="10.00" fill="#767676">&gt;=7.2</text>
</g>
<!-- symfony/polyfill&#45;intl&#45;grapheme&#45;&gt;php -->
<g id="edge24" class="edge">
<title>symfony/polyfill&#45;intl&#45;grapheme&#45;&gt;php</title>
<path fill="none" stroke="#1a2833" d="M936.72,-82.82C950.04,-71.22 967.8,-55.75 982.5,-42.95"/>
<polygon fill="#1a2833" stroke="#1a2833" points="985.06,-45.36 990.31,-36.15 980.47,-40.08 985.06,-45.36"/>
<text text-anchor="middle" x="986" y="-57" font-family="Times,serif" font-size="10.00" fill="#767676">&gt;=7.2</text>
</g>
<!-- symfony/polyfill&#45;intl&#45;normalizer&#45;&gt;php -->
<g id="edge26" class="edge">
<title>symfony/polyfill&#45;intl&#45;normalizer&#45;&gt;php</title>
<path fill="none" stroke="#1a2833" d="M1186.77,-82.92C1145.06,-67.84 1085.09,-46.15 1046.84,-32.32"/>
<polygon fill="#1a2833" stroke="#1a2833" points="1047.72,-28.92 1037.13,-28.81 1045.34,-35.5 1047.72,-28.92"/>
<text text-anchor="middle" x="1152" y="-57" font-family="Times,serif" font-size="10.00" fill="#767676">&gt;=7.2</text>
</g>
<!-- bamarni/composer&#45;bin&#45;plugin&#45;&gt;php -->
<g id="edge32" class="edge">
<title>bamarni/composer&#45;bin&#45;plugin&#45;&gt;php</title>
<path fill="none" stroke="#1a2833" d="M2157.21,-273.89C2151.35,-227.97 2128.21,-102.19 2047,-54 2003.21,-28.01 1227.72,-20.63 1047.29,-19.26"/>
<polygon fill="#1a2833" stroke="#1a2833" points="1047.26,-15.76 1037.23,-19.18 1047.2,-22.76 1047.26,-15.76"/>
<text text-anchor="middle" x="2157" y="-140" font-family="Times,serif" font-size="10.00" fill="#767676">^7.2.5 || ^8.0</text>
</g>
<!-- composer&#45;plugin&#45;api -->
<g id="node17" class="node">
<title>composer&#45;plugin&#45;api</title>
<path fill="#eeeeee" stroke="black" d="M2336.5,-202C2336.5,-202 2199.5,-202 2199.5,-202 2193.5,-202 2187.5,-196 2187.5,-190 2187.5,-190 2187.5,-178 2187.5,-178 2187.5,-172 2193.5,-166 2199.5,-166 2199.5,-166 2336.5,-166 2336.5,-166 2342.5,-166 2348.5,-172 2348.5,-178 2348.5,-178 2348.5,-190 2348.5,-190 2348.5,-196 2342.5,-202 2336.5,-202"/>
<text text-anchor="middle" x="2268" y="-180.3" font-family="Times,serif" font-size="14.00" fill="#314b5f">composer&#45;plugin&#45;api</text>
</g>
<!-- bamarni/composer&#45;bin&#45;plugin&#45;&gt;composer&#45;plugin&#45;api -->
<g id="edge31" class="edge">
<title>bamarni/composer&#45;bin&#45;plugin&#45;&gt;composer&#45;plugin&#45;api</title>
<path fill="none" stroke="#1a2833" d="M2176.51,-273.97C2194.44,-256.53 2222.48,-229.26 2242.8,-209.51"/>
<polygon fill="#1a2833" stroke="#1a2833" points="2245.44,-211.82 2250.17,-202.34 2240.56,-206.8 2245.44,-211.82"/>
<text text-anchor="middle" x="2241" y="-235.5" font-family="Times,serif" font-size="10.00" fill="#767676">^2.0</text>
</g>
</g>
</svg>
